<?xml version="1.0" standalone="no"?>
<!DOCTYPE svg PUBLIC "-//W3C//DTD SVG 20010904//EN"
 "http://www.w3.org/TR/2001/REC-SVG-20010904/DTD/svg10.dtd">
<svg version="1.0" xmlns="http://www.w3.org/2000/svg"
 width="374.000000pt" height="374.000000pt" viewBox="0 0 374.000000 374.000000"
 preserveAspectRatio="xMidYMid meet">
<metadata>
Created by potrace 1.11, written by Peter Selinger 2001-2013
</metadata>
<g transform="translate(0.000000,374.000000) scale(0.100000,-0.100000)"
fill="#000000" stroke="none">
<path d="M629 3721 c-1 -12 -2 -24 -3 -28 -2 -5 -6 -35 -11 -68 -5 -33 -10
-62 -10 -65 -5 -19 -19 -126 -17 -132 1 -5 -28 -8 -66 -9 -102 -1 -355 -10
-480 -18 -10 -1 -12 -48 -7 -233 3 -128 7 -345 10 -483 3 -137 7 -349 10 -470
2 -121 7 -344 10 -495 3 -151 8 -362 10 -469 3 -107 7 -323 10 -480 9 -464 15
-673 21 -682 3 -5 19 -7 37 -4 18 2 126 7 242 10 116 4 248 8 295 10 47 2 171
6 275 10 105 3 228 8 275 10 47 2 173 6 280 10 107 3 236 8 285 10 90 3 437
16 550 19 41 2 101 -8 190 -31 129 -33 455 -120 486 -129 14 -4 19 10 30 78 7
46 12 89 11 96 -2 8 12 12 45 13 26 1 66 2 88 3 31 2 454 18 513 19 12 0 12 4
-3 712 -3 132 -8 344 -10 470 -10 463 -15 745 -20 945 -2 113 -7 347 -11 520
-3 173 -7 365 -9 425 -1 61 -3 141 -4 179 l-1 68 -177 -6 c-98 -4 -230 -9
-293 -11 -118 -5 -326 -12 -580 -20 -80 -3 -194 -7 -255 -10 -215 -9 -521 -19
-600 -19 -71 1 -139 16 -580 133 -275 72 -508 134 -517 137 -13 4 -18 -1 -19
-15z"/>
</g>
</svg>
